# xmcd
#
# Track frame offsets:
# 150
# 22509
# 49583
# 51132
# 79976
# 104117
# 127640
# 166618
#
# Disc length: 2627 seconds
#
#
# Revision: 0
# Processed by: cddbd v1.5.2PL0 Copyright (c) Steve Scherf et al.
# Submitted via: Nero 7, 11, 10, 0 
#
DISCID=520a4108
DTITLE=Terry Evans - Live In Europe
DYEAR=1999
DGENRE=Blues
TTITLE0=I Fancy You
TTITLE1=Rooftop Tomcat
TTITLE2=Intro To Honey Boy
TTITLE3=Honey Boy
TTITLE4=In This Day And Time
TTITLE5=Natural Bone Lover
TTITLE6=Come To The River
TTITLE7=Bald Head
EXTD=
EXTT0=I Fancy You
EXTT1=Rooftop Tomcat
EXTT2=Intro To Honey Boy
EXTT3=Honey Boy
EXTT4=In This Day And Time
EXTT5=Natural Bone Lover
EXTT6=Come To The River
EXTT7=Bald Head
PLAYORDER=
